<svg width="86" height="87" viewBox="0 0 86 87" fill="none" xmlns="http://www.w3.org/2000/svg">
<path d="M71.6297 41.9672C71.6297 60.98 48.1229 73.4345 43.7302 75.5958C43.2857 75.8145 42.7698 75.8145 42.3253 75.5958C37.9326 73.4345 14.4258 60.98 14.4258 41.9672C14.4258 25.8786 28.2844 15.1528 43.0278 15.1528C58.2821 15.1528 71.6297 25.8786 71.6297 41.9672Z" fill="white" fill-opacity="0.25"/>
<path d="M29.7493 42.9897L42.5863 55.8268C42.7944 56.0348 42.8984 56.1388 43.0276 56.1388C43.1568 56.1388 43.2609 56.0348 43.4689 55.8268L56.3059 42.9897C56.8913 42.4044 57.1839 42.1117 57.4142 41.8262C59.1285 39.7004 59.4196 36.7605 58.1555 34.3397C57.9857 34.0146 57.7561 33.6702 57.297 32.9815C56.4573 31.722 56.0374 31.0922 55.6682 30.6928C52.8223 27.6142 47.9056 27.7835 45.2782 31.0506C44.9374 31.4745 44.5618 32.1317 43.8108 33.446L43.8108 33.446L43.3063 34.3288L43.3063 34.3289C43.2584 34.4127 43.2344 34.4547 43.2108 34.4786C43.11 34.5807 42.9452 34.5807 42.8444 34.4786C42.8208 34.4547 42.7968 34.4127 42.7489 34.3289L42.7489 34.3288L42.2444 33.446C41.4934 32.1317 41.1178 31.4745 40.777 31.0506C38.1496 27.7835 33.2329 27.6142 30.387 30.6928C30.0178 31.0922 29.5979 31.722 28.7583 32.9815L28.7582 32.9815C28.2991 33.6703 28.0695 34.0146 27.8997 34.3397C26.6356 36.7605 26.9267 39.7004 28.641 41.8262C28.8713 42.1117 29.1639 42.4044 29.7493 42.9897Z" fill="white"/>
</svg>
