<svg width="86" height="87" viewBox="0 0 86 87" fill="none" xmlns="http://www.w3.org/2000/svg">
<path d="M37.9653 48.8144L27.5345 47.8661C24.9126 47.6278 23.6016 47.5086 23.1852 46.6118C22.7688 45.715 23.5237 44.6366 25.0334 42.4797L44.1957 15.105C45.1931 13.6802 45.6918 12.9678 46.1219 13.1192C46.552 13.2707 46.4942 14.1384 46.3785 15.8738L45.1002 35.0489C44.9949 36.6281 44.9422 37.4177 45.396 37.949C45.8498 38.4804 46.6379 38.552 48.2141 38.6953L58.6448 39.6436C61.2668 39.8819 62.5777 40.0011 62.9941 40.8979C63.4105 41.7948 62.6557 42.8732 61.1459 45.03L41.9836 72.4047C40.9862 73.8296 40.4875 74.542 40.0574 74.3905C39.6273 74.239 39.6851 73.3713 39.8008 71.6359L41.0792 52.4608C41.1844 50.8817 41.2371 50.0921 40.7833 49.5607C40.3295 49.0293 39.5415 48.9577 37.9653 48.8144Z" stroke="#6E58F1" stroke-width="4.2903"/>
<path d="M66.3287 15.1528L60.9658 22.3033H68.1163L62.7534 29.4538" stroke="#6E58F1" stroke-opacity="0.25" stroke-width="4.2903" stroke-linecap="round" stroke-linejoin="round"/>
<path d="M23.4259 58.0557L18.063 65.2062H25.2135L19.8506 72.3567" stroke="#6E58F1" stroke-opacity="0.25" stroke-width="4.2903" stroke-linecap="round" stroke-linejoin="round"/>
</svg>
