<svg width="86" height="87" viewBox="0 0 86 87" fill="none" xmlns="http://www.w3.org/2000/svg">
<path d="M14.3779 33.6963C14.3779 31.6321 14.3779 30.6 14.8905 29.7706C15.4031 28.9412 16.3263 28.4797 18.1725 27.5565L39.91 16.6878C41.4164 15.9346 42.1697 15.558 42.9799 15.558C43.7901 15.558 44.5434 15.9346 46.0498 16.6878L67.7873 27.5565C69.6335 28.4797 70.5567 28.9412 71.0693 29.7706C71.5819 30.6 71.5819 31.6321 71.5819 33.6963V65.4923C71.5819 68.7283 71.5819 70.3462 70.5766 71.3515C69.5713 72.3568 67.9534 72.3568 64.7174 72.3568H21.2424C18.0065 72.3568 16.3885 72.3568 15.3832 71.3515C14.3779 70.3462 14.3779 68.7283 14.3779 65.4923V33.6963Z" stroke="#6E58F1" stroke-width="4.2903"/>
<path d="M24.0984 49.8997L14.3779 40.1792V68.9242C14.3779 70.8198 15.9146 72.3564 17.8102 72.3564H68.1496C70.0452 72.3564 71.5819 70.8198 71.5819 68.9242V40.1792L61.8614 49.8997C61.2178 50.5434 60.3447 50.905 59.4345 50.905H26.5254C25.6151 50.905 24.7421 50.5434 24.0984 49.8997Z" fill="#6E58F1" fill-opacity="0.25" stroke="#6E58F1" stroke-width="4.2903" stroke-linecap="round"/>
</svg>
