<svg width="40" height="30" viewBox="0 0 40 30" fill="none" xmlns="http://www.w3.org/2000/svg">
<path d="M0.215809 7.45641L0.265663 7.11977L0.317509 7.13179C0.671833 5.46664 1.48808 3.93634 2.67179 2.71796C3.85551 1.49957 5.35831 0.642891 7.00633 0.247045C8.65435 -0.148802 10.3802 -0.0676382 11.9842 0.481145C13.5883 1.02993 15.0049 2.0239 16.0702 3.34806C17.1355 4.67221 17.806 6.27243 18.004 7.96355C18.2021 9.65467 17.9196 11.3676 17.1892 12.9041C16.4589 14.4406 15.3106 15.7379 13.8772 16.6459C12.4437 17.5539 10.7837 18.0354 9.0893 18.0349C8.64463 18.0349 8.21791 17.9667 7.79318 17.9046C7.93077 18.3695 8.07234 18.8424 8.29966 19.2672C8.52699 19.8844 8.88192 20.4195 9.23487 20.9585C9.52999 21.5416 10.0504 21.9364 10.4333 22.4354C10.8341 22.9203 11.3805 23.2429 11.8132 23.6457C12.2379 24.0665 12.7942 24.2769 13.2369 24.5735C13.6995 24.84 14.1023 25.1346 14.533 25.2749L15.6078 25.7197L16.553 26.1145L15.5879 30L14.3974 29.7114C14.0166 29.6153 13.552 29.503 13.0236 29.3688C12.4832 29.2686 11.9069 28.9941 11.2648 28.7436C10.6327 28.457 9.89689 28.2666 9.21493 27.8078C8.52898 27.3709 7.73734 27.0062 7.03943 26.4211C6.36345 25.8179 5.54789 25.2949 4.94568 24.5294C4.28765 23.812 3.63759 23.0586 3.1331 22.2009C2.54884 21.3833 2.15203 20.4856 1.73328 19.5979C1.35441 18.7102 1.04932 17.8024 0.800068 16.9207C0.32748 15.1533 0.116108 13.474 0.0343513 12.0373C-0.0334435 10.5985 0.00643539 9.40218 0.0901871 8.5365C0.11821 8.17498 0.160114 7.81468 0.215809 7.45641ZM22.1503 7.45641L22.2001 7.11977L22.252 7.13179C22.6063 5.46664 23.4226 3.93634 24.6063 2.71796C25.79 1.49957 27.2928 0.642891 28.9408 0.247045C30.5888 -0.148802 32.3147 -0.0676382 33.9187 0.481145C35.5228 1.02993 36.9394 2.0239 38.0047 3.34806C39.07 4.67221 39.7405 6.27243 39.9385 7.96355C40.1365 9.65467 39.854 11.3676 39.1237 12.9041C38.3934 14.4406 37.2451 15.7379 35.8116 16.6459C34.3782 17.5539 32.7182 18.0354 31.0238 18.0349C30.5791 18.0349 30.1524 17.9667 29.7277 17.9046C29.8652 18.3695 30.0068 18.8424 30.2341 19.2672C30.4615 19.8844 30.8164 20.4195 31.1693 20.9585C31.4645 21.5416 31.9849 21.9364 32.3678 22.4354C32.7686 22.9203 33.3149 23.2429 33.7476 23.6457C34.1724 24.0665 34.7287 24.2769 35.1714 24.5735C35.634 24.84 36.0368 25.1346 36.4675 25.2749L37.5423 25.7197C38.1425 25.9662 38.4855 26.1105 38.4855 26.1105L37.5204 29.996L36.3299 29.7074C35.9491 29.6112 35.4845 29.499 34.956 29.3648C34.4156 29.2646 33.8394 28.99 33.1973 28.7396C32.5652 28.453 31.8294 28.2626 31.1474 27.8038C30.4615 27.3669 29.6698 27.0022 28.9719 26.4171C28.2959 25.8139 27.4804 25.2909 26.8782 24.5254C26.2201 23.808 25.5701 23.0546 25.0656 22.1969C24.4813 21.3793 24.0845 20.4816 23.6658 19.5939C23.2869 18.7062 22.9818 17.7984 22.7325 16.9167C22.26 15.1493 22.0486 13.47 21.9668 12.0333C21.899 10.5945 21.9389 9.39817 22.0227 8.5325C22.0524 8.17239 22.095 7.81347 22.1503 7.45641Z" fill="#6E58F1"/>
</svg>
