<svg width="86" height="87" viewBox="0 0 86 87" fill="none" xmlns="http://www.w3.org/2000/svg">
<path d="M19.523 27.8179L27.7059 42.1378C28.1809 42.9692 28.4185 43.385 28.4185 43.8407C28.4185 44.2964 28.1809 44.7121 27.7059 45.5436L19.523 59.8635C17.398 63.5824 16.3354 65.4418 17.164 66.3639C17.9926 67.286 19.9547 66.4276 23.8788 64.7108L64.3945 46.9852C67.4758 45.6371 69.0165 44.9631 69.0165 43.8407C69.0165 42.7183 67.4758 42.0443 64.3945 40.6962L23.8788 22.9706C19.9547 21.2538 17.9926 20.3954 17.164 21.3175C16.3354 22.2396 17.398 24.099 19.523 27.8179Z" fill="#6E58F1" fill-opacity="0.25" stroke="#6E58F1" stroke-width="4.2903"/>
</svg>
